<svg width="244" height="120" viewBox="0 0 244 120" fill="none" xmlns="http://www.w3.org/2000/svg">
<rect width="243.6" height="120" fill="white"/>
<rect width="234" height="120" fill="#F7F7F7"/>
<path d="M54.5273 85.3885V73.6285H58.3241C59.6905 73.6285 60.8161 73.8693 61.7009 74.3509C62.5969 74.8325 63.2577 75.5157 63.6833 76.4005C64.1201 77.2741 64.3385 78.3157 64.3385 79.5253C64.3385 80.7125 64.1201 81.7485 63.6833 82.6333C63.2577 83.5069 62.5969 84.1845 61.7009 84.6661C60.8161 85.1477 59.6905 85.3885 58.3241 85.3885H54.5273ZM56.5433 83.6749H58.2233C59.2425 83.6749 60.0433 83.5125 60.6257 83.1877C61.2193 82.8517 61.6393 82.3757 61.8857 81.7597C62.1433 81.1325 62.2721 80.3877 62.2721 79.5253C62.2721 78.6517 62.1433 77.9069 61.8857 77.2909C61.6393 76.6637 61.2193 76.1821 60.6257 75.8461C60.0433 75.4989 59.2425 75.3253 58.2233 75.3253H56.5433V83.6749Z" fill="#424242"/>
<path d="M70.1878 85.5901C69.3814 85.5901 68.6534 85.4053 68.0038 85.0357C67.3654 84.6549 66.8614 84.1341 66.4918 83.4733C66.1334 82.8013 65.9542 82.0341 65.9542 81.1717C65.9542 80.2869 66.139 79.5141 66.5086 78.8533C66.8782 78.1813 67.3822 77.6605 68.0206 77.2909C68.6702 76.9101 69.3982 76.7197 70.2046 76.7197C71.011 76.7197 71.7334 76.9101 72.3718 77.2909C73.0214 77.6605 73.5254 78.1757 73.8838 78.8365C74.2534 79.4973 74.4382 80.2701 74.4382 81.1549C74.4382 82.0397 74.2534 82.8125 73.8838 83.4733C73.5142 84.1341 73.0046 84.6549 72.355 85.0357C71.7166 85.4053 70.9942 85.5901 70.1878 85.5901ZM70.1878 83.8597C70.591 83.8597 70.955 83.7589 71.2798 83.5573C71.6158 83.3557 71.8846 83.0533 72.0862 82.6501C72.2878 82.2469 72.3886 81.7485 72.3886 81.1549C72.3886 80.5613 72.2878 80.0685 72.0862 79.6765C71.8958 79.2733 71.6326 78.9709 71.2966 78.7693C70.9718 78.5677 70.6078 78.4669 70.2046 78.4669C69.8126 78.4669 69.4486 78.5677 69.1126 78.7693C68.7766 78.9709 68.5078 79.2733 68.3062 79.6765C68.1046 80.0685 68.0038 80.5613 68.0038 81.1549C68.0038 81.7485 68.1046 82.2469 68.3062 82.6501C68.5078 83.0533 68.771 83.3557 69.0958 83.5573C69.4318 83.7589 69.7958 83.8597 70.1878 83.8597Z" fill="#424242"/>
<path d="M80.4269 85.5901C79.5981 85.5901 78.8533 85.4053 78.1925 85.0357C77.5429 84.6549 77.0333 84.1341 76.6637 83.4733C76.3053 82.8013 76.1261 82.0397 76.1261 81.1885C76.1261 80.3037 76.3053 79.5309 76.6637 78.8701C77.0333 78.1981 77.5429 77.6717 78.1925 77.2909C78.8533 76.9101 79.6037 76.7197 80.4437 76.7197C81.4965 76.7197 82.3813 76.9997 83.0981 77.5597C83.8149 78.1085 84.2741 78.8645 84.4757 79.8277H82.3589C82.2469 79.4021 82.0117 79.0661 81.6533 78.8197C81.3061 78.5733 80.8917 78.4501 80.4101 78.4501C79.9957 78.4501 79.6149 78.5565 79.2677 78.7693C78.9317 78.9821 78.6629 79.2901 78.4613 79.6933C78.2709 80.0965 78.1757 80.5837 78.1757 81.1549C78.1757 81.5917 78.2317 81.9781 78.3437 82.3141C78.4557 82.6501 78.6125 82.9357 78.8141 83.1709C79.0269 83.3949 79.2677 83.5685 79.5365 83.6917C79.8053 83.8149 80.0965 83.8765 80.4101 83.8765C80.7349 83.8765 81.0261 83.8261 81.2837 83.7253C81.5525 83.6133 81.7765 83.4509 81.9557 83.2381C82.1461 83.0253 82.2805 82.7733 82.3589 82.4821H84.4757C84.2741 83.4229 83.8149 84.1789 83.0981 84.7501C82.3813 85.3101 81.4909 85.5901 80.4269 85.5901Z" fill="#424242"/>
<path d="M89.5611 85.5901C88.8779 85.5901 88.2899 85.4557 87.7971 85.1869C87.3155 84.9069 86.9459 84.4925 86.6883 83.9437C86.4307 83.3837 86.3019 82.6949 86.3019 81.8773V76.9213H88.3179V81.6757C88.3179 82.4037 88.4691 82.9581 88.7715 83.3389C89.0851 83.7085 89.5555 83.8933 90.1827 83.8933C90.5859 83.8933 90.9443 83.7981 91.2579 83.6077C91.5827 83.4173 91.8347 83.1429 92.0139 82.7845C92.2043 82.4149 92.2995 81.9669 92.2995 81.4405V76.9213H94.3155V85.3885H92.5347L92.3835 83.9773C92.1259 84.4701 91.7507 84.8621 91.2579 85.1533C90.7763 85.4445 90.2107 85.5901 89.5611 85.5901Z" fill="#424242"/>
<path d="M96.5586 85.3885V76.9213H98.3394L98.5074 78.0805C98.7762 77.6549 99.129 77.3245 99.5658 77.0893C100.014 76.8429 100.523 76.7197 101.095 76.7197C101.52 76.7197 101.901 76.7757 102.237 76.8877C102.584 76.9997 102.887 77.1677 103.144 77.3917C103.413 77.6157 103.631 77.8957 103.799 78.2317C104.113 77.7613 104.522 77.3917 105.026 77.1229C105.53 76.8541 106.079 76.7197 106.672 76.7197C107.378 76.7197 107.977 76.8653 108.47 77.1565C108.963 77.4365 109.338 77.8565 109.595 78.4165C109.853 78.9653 109.982 79.6429 109.982 80.4493V85.3885H107.983V80.6509C107.983 79.9341 107.837 79.3853 107.546 79.0045C107.255 78.6237 106.823 78.4333 106.252 78.4333C105.86 78.4333 105.513 78.5285 105.211 78.7189C104.919 78.9093 104.69 79.1893 104.522 79.5589C104.354 79.9173 104.27 80.3597 104.27 80.8861V85.3885H102.271V80.6509C102.271 79.9341 102.125 79.3853 101.834 79.0045C101.543 78.6237 101.106 78.4333 100.523 78.4333C100.154 78.4333 99.8178 78.5285 99.5154 78.7189C99.2242 78.9093 98.9946 79.1893 98.8266 79.5589C98.6586 79.9173 98.5746 80.3597 98.5746 80.8861V85.3885H96.5586Z" fill="#424242"/>
<path d="M116.077 85.5901C115.237 85.5901 114.497 85.4109 113.859 85.0525C113.221 84.6829 112.722 84.1677 112.364 83.5069C112.005 82.8461 111.826 82.0845 111.826 81.2221C111.826 80.3261 112 79.5421 112.347 78.8701C112.705 78.1981 113.204 77.6717 113.842 77.2909C114.492 76.9101 115.242 76.7197 116.093 76.7197C116.922 76.7197 117.645 76.9045 118.261 77.2741C118.877 77.6437 119.353 78.1421 119.689 78.7693C120.025 79.3853 120.193 80.0797 120.193 80.8525C120.193 80.9645 120.193 81.0877 120.193 81.2221C120.193 81.3565 120.181 81.4965 120.159 81.6421H113.271V80.3485H118.16C118.137 79.7325 117.93 79.2509 117.538 78.9037C117.146 78.5453 116.659 78.3661 116.077 78.3661C115.662 78.3661 115.281 78.4613 114.934 78.6517C114.587 78.8421 114.313 79.1277 114.111 79.5085C113.909 79.8781 113.809 80.3485 113.809 80.9197V81.4069C113.809 81.9333 113.904 82.3869 114.094 82.7677C114.296 83.1485 114.565 83.4397 114.901 83.6413C115.248 83.8317 115.634 83.9269 116.06 83.9269C116.53 83.9269 116.917 83.8261 117.219 83.6245C117.533 83.4229 117.762 83.1541 117.908 82.8181H119.957C119.801 83.3445 119.543 83.8205 119.185 84.2461C118.826 84.6605 118.384 84.9909 117.857 85.2373C117.331 85.4725 116.737 85.5901 116.077 85.5901Z" fill="#424242"/>
<path d="M122.054 85.3885V76.9213H123.835L123.986 78.3325C124.243 77.8397 124.613 77.4477 125.095 77.1565C125.576 76.8653 126.147 76.7197 126.808 76.7197C127.491 76.7197 128.074 76.8653 128.555 77.1565C129.037 77.4365 129.407 77.8509 129.664 78.3997C129.933 78.9485 130.067 79.6317 130.067 80.4493V85.3885H128.051V80.6341C128.051 79.9285 127.895 79.3853 127.581 79.0045C127.267 78.6237 126.803 78.4333 126.187 78.4333C125.783 78.4333 125.419 78.5285 125.095 78.7189C124.781 78.9093 124.529 79.1893 124.339 79.5589C124.159 79.9173 124.07 80.3541 124.07 80.8693V85.3885H122.054Z" fill="#424242"/>
<path d="M135.872 85.3885C135.301 85.3885 134.803 85.2989 134.377 85.1197C133.963 84.9405 133.638 84.6437 133.403 84.2293C133.167 83.8149 133.05 83.2549 133.05 82.5493V78.6181H131.605V76.9213H133.05L133.285 74.6869H135.066V76.9213H137.367V78.6181H135.066V82.5493C135.066 82.9749 135.155 83.2717 135.335 83.4397C135.525 83.5965 135.839 83.6749 136.275 83.6749H137.317V85.3885H135.872Z" fill="#424242"/>
<path d="M142.086 85.5901C141.392 85.5901 140.815 85.4725 140.356 85.2373C139.897 85.0021 139.555 84.6885 139.331 84.2965C139.107 83.9045 138.995 83.4789 138.995 83.0197C138.995 82.4821 139.13 82.0173 139.398 81.6253C139.678 81.2333 140.087 80.9309 140.625 80.7181C141.162 80.4941 141.823 80.3821 142.607 80.3821H144.741C144.741 79.9341 144.679 79.5645 144.556 79.2733C144.433 78.9709 144.242 78.7469 143.985 78.6013C143.727 78.4557 143.397 78.3829 142.994 78.3829C142.534 78.3829 142.142 78.4893 141.818 78.7021C141.493 78.9037 141.291 79.2173 141.213 79.6429H139.23C139.298 79.0381 139.499 78.5229 139.835 78.0973C140.171 77.6605 140.614 77.3245 141.162 77.0893C141.722 76.8429 142.333 76.7197 142.994 76.7197C143.789 76.7197 144.466 76.8597 145.026 77.1397C145.586 77.4085 146.012 77.8005 146.303 78.3157C146.606 78.8197 146.757 79.4301 146.757 80.1469V85.3885H145.043L144.842 84.0277C144.73 84.2517 144.584 84.4589 144.405 84.6493C144.237 84.8397 144.041 85.0077 143.817 85.1533C143.593 85.2877 143.335 85.3941 143.044 85.4725C142.764 85.5509 142.445 85.5901 142.086 85.5901ZM142.54 83.9941C142.865 83.9941 143.15 83.9381 143.397 83.8261C143.654 83.7029 143.873 83.5349 144.052 83.3221C144.242 83.0981 144.388 82.8517 144.489 82.5829C144.59 82.3141 144.657 82.0285 144.69 81.7261V81.6925H142.826C142.434 81.6925 142.109 81.7429 141.851 81.8437C141.594 81.9333 141.409 82.0677 141.297 82.2469C141.185 82.4261 141.129 82.6333 141.129 82.8685C141.129 83.1037 141.185 83.3053 141.297 83.4733C141.409 83.6413 141.571 83.7701 141.784 83.8597C141.997 83.9493 142.249 83.9941 142.54 83.9941Z" fill="#424242"/>
<path d="M152.459 85.3885C151.888 85.3885 151.389 85.2989 150.964 85.1197C150.549 84.9405 150.224 84.6437 149.989 84.2293C149.754 83.8149 149.636 83.2549 149.636 82.5493V78.6181H148.192V76.9213H149.636L149.872 74.6869H151.652V76.9213H153.954V78.6181H151.652V82.5493C151.652 82.9749 151.742 83.2717 151.921 83.4397C152.112 83.5965 152.425 83.6749 152.862 83.6749H153.904V85.3885H152.459Z" fill="#424242"/>
<path d="M155.935 85.3885V76.9213H157.951V85.3885H155.935ZM156.943 75.5773C156.573 75.5773 156.265 75.4653 156.019 75.2413C155.784 75.0061 155.666 74.7205 155.666 74.3845C155.666 74.0373 155.784 73.7573 156.019 73.5445C156.265 73.3205 156.573 73.2085 156.943 73.2085C157.312 73.2085 157.615 73.3205 157.85 73.5445C158.096 73.7573 158.22 74.0373 158.22 74.3845C158.22 74.7205 158.096 75.0061 157.85 75.2413C157.615 75.4653 157.312 75.5773 156.943 75.5773Z" fill="#424242"/>
<path d="M164.228 85.5901C163.422 85.5901 162.694 85.4053 162.044 85.0357C161.406 84.6549 160.902 84.1341 160.532 83.4733C160.174 82.8013 159.995 82.0341 159.995 81.1717C159.995 80.2869 160.18 79.5141 160.549 78.8533C160.919 78.1813 161.423 77.6605 162.061 77.2909C162.711 76.9101 163.439 76.7197 164.245 76.7197C165.052 76.7197 165.774 76.9101 166.412 77.2909C167.062 77.6605 167.566 78.1757 167.924 78.8365C168.294 79.4973 168.479 80.2701 168.479 81.1549C168.479 82.0397 168.294 82.8125 167.924 83.4733C167.555 84.1341 167.045 84.6549 166.396 85.0357C165.757 85.4053 165.035 85.5901 164.228 85.5901ZM164.228 83.8597C164.632 83.8597 164.996 83.7589 165.32 83.5573C165.656 83.3557 165.925 83.0533 166.127 82.6501C166.328 82.2469 166.429 81.7485 166.429 81.1549C166.429 80.5613 166.328 80.0685 166.127 79.6765C165.936 79.2733 165.673 78.9709 165.337 78.7693C165.012 78.5677 164.648 78.4669 164.245 78.4669C163.853 78.4669 163.489 78.5677 163.153 78.7693C162.817 78.9709 162.548 79.2733 162.347 79.6765C162.145 80.0685 162.044 80.5613 162.044 81.1549C162.044 81.7485 162.145 82.2469 162.347 82.6501C162.548 83.0533 162.812 83.3557 163.136 83.5573C163.472 83.7589 163.836 83.8597 164.228 83.8597Z" fill="#424242"/>
<path d="M170.452 85.3885V76.9213H172.233L172.384 78.3325C172.642 77.8397 173.012 77.4477 173.493 77.1565C173.975 76.8653 174.546 76.7197 175.207 76.7197C175.89 76.7197 176.472 76.8653 176.954 77.1565C177.436 77.4365 177.805 77.8509 178.063 78.3997C178.332 78.9485 178.466 79.6317 178.466 80.4493V85.3885H176.45V80.6341C176.45 79.9285 176.293 79.3853 175.98 79.0045C175.666 78.6237 175.201 78.4333 174.585 78.4333C174.182 78.4333 173.818 78.5285 173.493 78.7189C173.18 78.9093 172.928 79.1893 172.737 79.5589C172.558 79.9173 172.468 80.3541 172.468 80.8693V85.3885H170.452Z" fill="#424242"/>
<path fill-rule="evenodd" clip-rule="evenodd" d="M106.875 31.3312C107.697 30.4834 108.821 30 110 30H113.168C114.762 30 116.428 30.5896 117.978 31.4675C119.542 32.3531 121.071 33.578 122.414 34.9628C123.756 36.3479 124.939 37.9205 125.792 39.5208C126.638 41.1085 127.2 42.7991 127.2 44.4V54.3C127.2 54.886 127.088 55.4669 126.87 56.0101C126.651 56.5534 126.331 57.0493 125.924 57.4688C125.517 57.8884 125.032 58.2232 124.496 58.4524C123.959 58.6816 123.383 58.8 122.8 58.8H110C108.821 58.8 107.697 58.3166 106.875 57.4688C106.054 56.6222 105.6 55.4818 105.6 54.3V34.5C105.6 33.3182 106.054 32.1777 106.875 31.3312ZM123.26 39.9247C122.57 38.7897 121.687 37.6618 120.69 36.6332C119.716 35.6282 118.65 34.736 117.576 34.0322C117.591 34.1861 117.6 34.3422 117.6 34.5V37.8C117.6 38.0808 117.653 38.3581 117.757 38.6156C117.86 38.8731 118.011 39.1047 118.198 39.2981C118.576 39.688 119.081 39.9 119.6 39.9H122.8C122.954 39.9 123.107 39.9083 123.26 39.9247ZM113.168 32.4C114.254 32.4 115.2 33.32 115.2 34.5V37.8C115.2 38.3859 115.311 38.9669 115.53 39.5101C115.748 40.0534 116.069 40.5494 116.475 40.9688C117.297 41.8166 118.421 42.3 119.6 42.3H122.8C123.057 42.3 123.313 42.3522 123.553 42.4547C123.793 42.5573 124.013 42.7086 124.201 42.9019C124.388 43.0954 124.539 43.327 124.643 43.5844C124.746 43.842 124.8 44.1192 124.8 44.4V54.3C124.8 54.5808 124.746 54.858 124.643 55.1156C124.539 55.373 124.388 55.6046 124.201 55.7981C124.013 55.9914 123.793 56.1427 123.553 56.2453C123.313 56.3478 123.057 56.4 122.8 56.4H110C109.481 56.4 108.976 56.188 108.598 55.7981C108.219 55.4069 108 54.8687 108 54.3V34.5C108 33.9313 108.219 33.3931 108.598 33.0019C108.976 32.612 109.481 32.4 110 32.4H113.168ZM111.288 46.6C111.288 45.9372 111.826 45.4 112.488 45.4H118.177C118.84 45.4 119.377 45.9372 119.377 46.6C119.377 47.2627 118.84 47.8 118.177 47.8H112.488C111.826 47.8 111.288 47.2627 111.288 46.6ZM111.288 51C111.288 50.3372 111.826 49.8 112.488 49.8H121.022C121.685 49.8 122.222 50.3372 122.222 51C122.222 51.6628 121.685 52.2 121.022 52.2H112.488C111.826 52.2 111.288 51.6628 111.288 51Z" fill="#424242"/>
</svg>
