<svg width="245" height="120" viewBox="0 0 245 120" fill="none" xmlns="http://www.w3.org/2000/svg">
<rect x="0.600586" width="243.6" height="120" fill="white"/>
<rect x="10.2002" width="234" height="120" fill="#F7F7F7"/>
<path d="M86.0312 85.3885V73.6285H93.5409V75.2581H88.0473V78.7021H92.5329V80.2981H88.0473V85.3885H86.0312Z" fill="#424242"/>
<path d="M98.7222 85.5901C97.9158 85.5901 97.1878 85.4053 96.5382 85.0357C95.8998 84.6549 95.3958 84.1341 95.0262 83.4733C94.6678 82.8013 94.4886 82.0341 94.4886 81.1717C94.4886 80.2869 94.6734 79.5141 95.043 78.8533C95.4126 78.1813 95.9166 77.6605 96.555 77.2909C97.2046 76.9101 97.9326 76.7197 98.739 76.7197C99.5454 76.7197 100.268 76.9101 100.906 77.2909C101.556 77.6605 102.06 78.1757 102.418 78.8365C102.788 79.4973 102.973 80.2701 102.973 81.1549C102.973 82.0397 102.788 82.8125 102.418 83.4733C102.049 84.1341 101.539 84.6549 100.889 85.0357C100.251 85.4053 99.5286 85.5901 98.7222 85.5901ZM98.7222 83.8597C99.1254 83.8597 99.4894 83.7589 99.8142 83.5573C100.15 83.3557 100.419 83.0533 100.621 82.6501C100.822 82.2469 100.923 81.7485 100.923 81.1549C100.923 80.5613 100.822 80.0685 100.621 79.6765C100.43 79.2733 100.167 78.9709 99.831 78.7693C99.5062 78.5677 99.1422 78.4669 98.739 78.4669C98.347 78.4669 97.983 78.5677 97.647 78.7693C97.311 78.9709 97.0422 79.2733 96.8406 79.6765C96.639 80.0685 96.5382 80.5613 96.5382 81.1549C96.5382 81.7485 96.639 82.2469 96.8406 82.6501C97.0422 83.0533 97.3054 83.3557 97.6302 83.5573C97.9662 83.7589 98.3302 83.8597 98.7222 83.8597Z" fill="#424242"/>
<path d="M104.946 85.3885V73.2925H106.962V85.3885H104.946Z" fill="#424242"/>
<path d="M109.212 85.3885V73.2925H111.228V85.3885H109.212Z" fill="#424242"/>
<path d="M117.425 85.5901C116.619 85.5901 115.891 85.4053 115.241 85.0357C114.603 84.6549 114.099 84.1341 113.729 83.4733C113.371 82.8013 113.192 82.0341 113.192 81.1717C113.192 80.2869 113.377 79.5141 113.746 78.8533C114.116 78.1813 114.62 77.6605 115.258 77.2909C115.908 76.9101 116.636 76.7197 117.442 76.7197C118.249 76.7197 118.971 76.9101 119.609 77.2909C120.259 77.6605 120.763 78.1757 121.121 78.8365C121.491 79.4973 121.676 80.2701 121.676 81.1549C121.676 82.0397 121.491 82.8125 121.121 83.4733C120.752 84.1341 120.242 84.6549 119.593 85.0357C118.954 85.4053 118.232 85.5901 117.425 85.5901ZM117.425 83.8597C117.829 83.8597 118.193 83.7589 118.517 83.5573C118.853 83.3557 119.122 83.0533 119.324 82.6501C119.525 82.2469 119.626 81.7485 119.626 81.1549C119.626 80.5613 119.525 80.0685 119.324 79.6765C119.133 79.2733 118.87 78.9709 118.534 78.7693C118.209 78.5677 117.845 78.4669 117.442 78.4669C117.05 78.4669 116.686 78.5677 116.35 78.7693C116.014 78.9709 115.745 79.2733 115.544 79.6765C115.342 80.0685 115.241 80.5613 115.241 81.1549C115.241 81.7485 115.342 82.2469 115.544 82.6501C115.745 83.0533 116.009 83.3557 116.333 83.5573C116.669 83.7589 117.033 83.8597 117.425 83.8597Z" fill="#424242"/>
<path d="M125.034 85.3885L122.547 76.9213H124.547L126.277 83.8765L125.907 83.8597L127.839 76.9213H130.091L132.039 83.8597H131.67L133.4 76.9213H135.399L132.913 85.3885H130.83L128.763 78.2149H129.183L127.117 85.3885H125.034Z" fill="#424242"/>
<path d="M145.461 85.5901C144.609 85.5901 143.837 85.4221 143.142 85.0861C142.459 84.7501 141.91 84.2349 141.496 83.5405C141.093 82.8461 140.891 81.9725 140.891 80.9197V73.6285H142.907V80.9365C142.907 81.5749 143.013 82.1013 143.226 82.5157C143.439 82.9301 143.736 83.2437 144.117 83.4565C144.509 83.6581 144.968 83.7589 145.494 83.7589C146.032 83.7589 146.491 83.6581 146.872 83.4565C147.264 83.2437 147.561 82.9301 147.762 82.5157C147.975 82.1013 148.081 81.5749 148.081 80.9365V73.6285H150.097V80.9197C150.097 81.9725 149.89 82.8461 149.476 83.5405C149.061 84.2349 148.501 84.7501 147.796 85.0861C147.09 85.4221 146.312 85.5901 145.461 85.5901Z" fill="#424242"/>
<path d="M155.671 85.5901C154.921 85.5901 154.266 85.4725 153.706 85.2373C153.157 84.9909 152.72 84.6549 152.395 84.2293C152.082 83.7925 151.897 83.2941 151.841 82.7341H153.857C153.913 82.9693 154.014 83.1877 154.159 83.3893C154.305 83.5797 154.501 83.7309 154.747 83.8429C155.005 83.9549 155.307 84.0109 155.655 84.0109C155.991 84.0109 156.265 83.9661 156.478 83.8765C156.691 83.7757 156.847 83.6469 156.948 83.4901C157.049 83.3333 157.099 83.1653 157.099 82.9861C157.099 82.7173 157.027 82.5101 156.881 82.3645C156.735 82.2189 156.523 82.1069 156.243 82.0285C155.974 81.9389 155.649 81.8549 155.268 81.7765C154.865 81.6981 154.473 81.6029 154.092 81.4909C153.723 81.3677 153.387 81.2165 153.084 81.0373C152.793 80.8581 152.558 80.6285 152.379 80.3485C152.211 80.0685 152.127 79.7269 152.127 79.3237C152.127 78.8309 152.255 78.3885 152.513 77.9965C152.782 77.6045 153.163 77.2965 153.655 77.0725C154.159 76.8373 154.759 76.7197 155.453 76.7197C156.439 76.7197 157.223 76.9493 157.805 77.4085C158.399 77.8565 158.746 78.4893 158.847 79.3069H156.931C156.875 78.9933 156.719 78.7525 156.461 78.5845C156.203 78.4053 155.862 78.3157 155.436 78.3157C154.999 78.3157 154.663 78.3997 154.428 78.5677C154.204 78.7245 154.092 78.9373 154.092 79.2061C154.092 79.3741 154.159 79.5309 154.294 79.6765C154.439 79.8109 154.647 79.9285 154.915 80.0293C155.184 80.1189 155.515 80.2085 155.907 80.2981C156.534 80.4213 157.088 80.5669 157.57 80.7349C158.051 80.9029 158.432 81.1493 158.712 81.4741C158.992 81.7989 159.132 82.2581 159.132 82.8517C159.143 83.3893 159.003 83.8653 158.712 84.2797C158.432 84.6941 158.035 85.0189 157.519 85.2541C157.004 85.4781 156.388 85.5901 155.671 85.5901Z" fill="#424242"/>
<path fill-rule="evenodd" clip-rule="evenodd" d="M125.129 31.281C125.591 31.1021 126.115 31.2256 126.449 31.592L137.086 43.271C137.495 43.72 137.504 44.4037 137.107 44.8633L126.469 57.1843C126.141 57.5638 125.612 57.6996 125.142 57.5248C124.672 57.3499 124.361 56.9015 124.361 56.4V49.8917C122.562 49.6998 120.667 49.823 118.67 50.2771C116.608 50.7446 113.964 52.8238 110.753 57.0144C110.428 57.4393 109.86 57.5972 109.362 57.4016C108.864 57.2059 108.555 56.7041 108.606 56.1713C109.078 51.195 110.864 46.9792 113.993 43.5864C116.864 40.4742 120.337 38.7394 124.362 38.4269V32.4C124.362 31.9045 124.667 31.4599 125.129 31.281ZM126.762 35.4997V39.576C126.762 40.2347 126.231 40.7703 125.572 40.776C121.725 40.8091 118.474 42.2685 115.757 45.2136C113.957 47.1655 112.65 49.4376 111.844 52.0477C114.012 49.8228 116.108 48.3972 118.138 47.9368C120.782 47.3356 123.33 47.2408 125.767 47.667C126.342 47.7674 126.761 48.2662 126.761 48.8491V53.1742L134.595 44.1002L126.762 35.4997Z" fill="#424242"/>
</svg>
