<svg width="253" height="120" viewBox="0 0 253 120" fill="none" xmlns="http://www.w3.org/2000/svg">
<rect x="0.600586" width="252" height="120" fill="white"/>
<rect x="10.2002" width="232.8" height="120" fill="#F7F7F7"/>
<path d="M83.0499 85.5901C81.9411 85.5901 80.9667 85.3381 80.1267 84.8341C79.2979 84.3301 78.6539 83.6301 78.1947 82.7341C77.7355 81.8269 77.5059 80.7685 77.5059 79.5589C77.5059 78.3605 77.7411 77.3021 78.2115 76.3837C78.6819 75.4541 79.3539 74.7317 80.2275 74.2165C81.1123 73.6901 82.1595 73.4269 83.3691 73.4269C84.7355 73.4269 85.8667 73.7573 86.7627 74.4181C87.6699 75.0677 88.2579 75.9749 88.5267 77.1397H86.2587C86.0907 76.5573 85.7603 76.1037 85.2675 75.7789C84.7747 75.4541 84.1363 75.2917 83.3523 75.2917C82.5571 75.2917 81.8739 75.4653 81.3027 75.8125C80.7427 76.1485 80.3115 76.6413 80.0091 77.2909C79.7179 77.9293 79.5723 78.6909 79.5723 79.5757C79.5723 80.4605 79.7179 81.2221 80.0091 81.8605C80.3115 82.4989 80.7371 82.9861 81.2859 83.3221C81.8347 83.6469 82.4787 83.8093 83.2179 83.8093C84.3155 83.8093 85.1443 83.5013 85.7043 82.8853C86.2643 82.2693 86.5947 81.4685 86.6955 80.4829H83.6547V78.9541H88.7283V85.3885H86.8803L86.7123 83.7757C86.4547 84.1565 86.1579 84.4869 85.8219 84.7669C85.4859 85.0357 85.0883 85.2429 84.6291 85.3885C84.1811 85.5229 83.6547 85.5901 83.0499 85.5901Z" fill="#424242"/>
<path d="M94.8008 85.5901C93.9608 85.5901 93.2216 85.4109 92.5832 85.0525C91.9448 84.6829 91.4464 84.1677 91.088 83.5069C90.7296 82.8461 90.5504 82.0845 90.5504 81.2221C90.5504 80.3261 90.724 79.5421 91.0712 78.8701C91.4296 78.1981 91.928 77.6717 92.5664 77.2909C93.216 76.9101 93.9664 76.7197 94.8176 76.7197C95.6464 76.7197 96.3688 76.9045 96.9848 77.2741C97.6008 77.6437 98.0768 78.1421 98.4128 78.7693C98.7488 79.3853 98.9168 80.0797 98.9168 80.8525C98.9168 80.9645 98.9168 81.0877 98.9168 81.2221C98.9168 81.3565 98.9056 81.4965 98.8832 81.6421H91.9952V80.3485H96.884C96.8616 79.7325 96.6544 79.2509 96.2624 78.9037C95.8704 78.5453 95.3832 78.3661 94.8008 78.3661C94.3864 78.3661 94.0056 78.4613 93.6584 78.6517C93.3112 78.8421 93.0368 79.1277 92.8352 79.5085C92.6336 79.8781 92.5328 80.3485 92.5328 80.9197V81.4069C92.5328 81.9333 92.628 82.3869 92.8184 82.7677C93.02 83.1485 93.2888 83.4397 93.6248 83.6413C93.972 83.8317 94.3584 83.9269 94.784 83.9269C95.2544 83.9269 95.6408 83.8261 95.9432 83.6245C96.2568 83.4229 96.4864 83.1541 96.632 82.8181H98.6816C98.5248 83.3445 98.2672 83.8205 97.9088 84.2461C97.5504 84.6605 97.108 84.9909 96.5816 85.2373C96.0552 85.4725 95.4616 85.5901 94.8008 85.5901Z" fill="#424242"/>
<path d="M104.293 85.3885C103.722 85.3885 103.224 85.2989 102.798 85.1197C102.384 84.9405 102.059 84.6437 101.824 84.2293C101.589 83.8149 101.471 83.2549 101.471 82.5493V78.6181H100.026V76.9213H101.471L101.706 74.6869H103.487V76.9213H105.789V78.6181H103.487V82.5493C103.487 82.9749 103.577 83.2717 103.756 83.4397C103.946 83.5965 104.26 83.6749 104.697 83.6749H105.738V85.3885H104.293Z" fill="#424242"/>
<path d="M115.802 85.5901C114.951 85.5901 114.195 85.4389 113.534 85.1365C112.873 84.8341 112.358 84.4029 111.988 83.8429C111.619 83.2829 111.428 82.6165 111.417 81.8437H113.551C113.551 82.2357 113.64 82.5885 113.82 82.9021C114.01 83.2045 114.268 83.4453 114.592 83.6245C114.928 83.8037 115.332 83.8933 115.802 83.8933C116.205 83.8933 116.552 83.8317 116.844 83.7085C117.146 83.5741 117.376 83.3893 117.532 83.1541C117.7 82.9077 117.784 82.6221 117.784 82.2973C117.784 81.9277 117.695 81.6253 117.516 81.3901C117.348 81.1437 117.112 80.9365 116.81 80.7685C116.508 80.6005 116.16 80.4549 115.768 80.3317C115.376 80.1973 114.962 80.0573 114.525 79.9117C113.596 79.5981 112.896 79.2005 112.425 78.7189C111.955 78.2261 111.72 77.5709 111.72 76.7533C111.72 76.0701 111.882 75.4821 112.207 74.9893C112.532 74.4965 112.985 74.1157 113.568 73.8469C114.161 73.5669 114.844 73.4269 115.617 73.4269C116.401 73.4269 117.084 73.5669 117.667 73.8469C118.26 74.1269 118.725 74.5189 119.061 75.0229C119.408 75.5157 119.588 76.1093 119.599 76.8037H117.448C117.437 76.5125 117.359 76.2437 117.213 75.9973C117.068 75.7397 116.855 75.5325 116.575 75.3757C116.306 75.2077 115.976 75.1237 115.584 75.1237C115.248 75.1125 114.945 75.1685 114.676 75.2917C114.419 75.4037 114.212 75.5717 114.055 75.7957C113.909 76.0085 113.836 76.2773 113.836 76.6021C113.836 76.9157 113.904 77.1789 114.038 77.3917C114.184 77.5933 114.391 77.7669 114.66 77.9125C114.928 78.0469 115.242 78.1757 115.6 78.2989C115.959 78.4221 116.351 78.5565 116.776 78.7021C117.359 78.8925 117.885 79.1277 118.356 79.4077C118.837 79.6765 119.218 80.0293 119.498 80.4661C119.778 80.9029 119.918 81.4685 119.918 82.1629C119.918 82.7677 119.761 83.3333 119.448 83.8597C119.134 84.3749 118.675 84.7949 118.07 85.1197C117.465 85.4333 116.709 85.5901 115.802 85.5901Z" fill="#424242"/>
<path d="M124.953 85.5901C124.269 85.5901 123.681 85.4557 123.189 85.1869C122.707 84.9069 122.337 84.4925 122.08 83.9437C121.822 83.3837 121.693 82.6949 121.693 81.8773V76.9213H123.709V81.6757C123.709 82.4037 123.861 82.9581 124.163 83.3389C124.477 83.7085 124.947 83.8933 125.574 83.8933C125.977 83.8933 126.336 83.7981 126.649 83.6077C126.974 83.4173 127.226 83.1429 127.405 82.7845C127.596 82.4149 127.691 81.9669 127.691 81.4405V76.9213H129.707V85.3885H127.926L127.775 83.9773C127.517 84.4701 127.142 84.8621 126.649 85.1533C126.168 85.4445 125.602 85.5901 124.953 85.5901Z" fill="#424242"/>
<path d="M131.95 89.0845V76.9213H133.748L133.966 78.1477C134.145 77.9013 134.358 77.6717 134.604 77.4589C134.862 77.2349 135.17 77.0557 135.528 76.9213C135.898 76.7869 136.318 76.7197 136.788 76.7197C137.584 76.7197 138.284 76.9157 138.888 77.3077C139.504 77.6997 139.986 78.2317 140.333 78.9037C140.68 79.5645 140.854 80.3205 140.854 81.1717C140.854 82.0229 140.675 82.7845 140.316 83.4565C139.969 84.1173 139.488 84.6381 138.872 85.0189C138.267 85.3997 137.572 85.5901 136.788 85.5901C136.15 85.5901 135.59 85.4725 135.108 85.2373C134.638 84.9909 134.257 84.6437 133.966 84.1957V89.0845H131.95ZM136.368 83.8429C136.839 83.8429 137.259 83.7309 137.628 83.5069C137.998 83.2829 138.284 82.9693 138.485 82.5661C138.698 82.1629 138.804 81.6981 138.804 81.1717C138.804 80.6341 138.698 80.1637 138.485 79.7605C138.284 79.3573 137.998 79.0437 137.628 78.8197C137.259 78.5957 136.839 78.4837 136.368 78.4837C135.887 78.4837 135.461 78.5957 135.092 78.8197C134.733 79.0437 134.448 79.3573 134.235 79.7605C134.033 80.1637 133.932 80.6285 133.932 81.1549C133.932 81.6925 134.033 82.1629 134.235 82.5661C134.448 82.9581 134.733 83.2717 135.092 83.5069C135.461 83.7309 135.887 83.8429 136.368 83.8429Z" fill="#424242"/>
<path d="M142.811 89.0845V76.9213H144.609L144.827 78.1477C145.006 77.9013 145.219 77.6717 145.465 77.4589C145.723 77.2349 146.031 77.0557 146.389 76.9213C146.759 76.7869 147.179 76.7197 147.649 76.7197C148.445 76.7197 149.145 76.9157 149.749 77.3077C150.365 77.6997 150.847 78.2317 151.194 78.9037C151.541 79.5645 151.715 80.3205 151.715 81.1717C151.715 82.0229 151.536 82.7845 151.177 83.4565C150.83 84.1173 150.349 84.6381 149.733 85.0189C149.128 85.3997 148.433 85.5901 147.649 85.5901C147.011 85.5901 146.451 85.4725 145.969 85.2373C145.499 84.9909 145.118 84.6437 144.827 84.1957V89.0845H142.811ZM147.229 83.8429C147.7 83.8429 148.12 83.7309 148.489 83.5069C148.859 83.2829 149.145 82.9693 149.346 82.5661C149.559 82.1629 149.665 81.6981 149.665 81.1717C149.665 80.6341 149.559 80.1637 149.346 79.7605C149.145 79.3573 148.859 79.0437 148.489 78.8197C148.12 78.5957 147.7 78.4837 147.229 78.4837C146.748 78.4837 146.322 78.5957 145.953 78.8197C145.594 79.0437 145.309 79.3573 145.096 79.7605C144.894 80.1637 144.793 80.6285 144.793 81.1549C144.793 81.6925 144.894 82.1629 145.096 82.5661C145.309 82.9581 145.594 83.2717 145.953 83.5069C146.322 83.7309 146.748 83.8429 147.229 83.8429Z" fill="#424242"/>
<path d="M157.62 85.5901C156.814 85.5901 156.086 85.4053 155.436 85.0357C154.798 84.6549 154.294 84.1341 153.924 83.4733C153.566 82.8013 153.386 82.0341 153.386 81.1717C153.386 80.2869 153.571 79.5141 153.941 78.8533C154.31 78.1813 154.814 77.6605 155.453 77.2909C156.102 76.9101 156.83 76.7197 157.637 76.7197C158.443 76.7197 159.166 76.9101 159.804 77.2909C160.454 77.6605 160.958 78.1757 161.316 78.8365C161.686 79.4973 161.87 80.2701 161.87 81.1549C161.87 82.0397 161.686 82.8125 161.316 83.4733C160.946 84.1341 160.437 84.6549 159.787 85.0357C159.149 85.4053 158.426 85.5901 157.62 85.5901ZM157.62 83.8597C158.023 83.8597 158.387 83.7589 158.712 83.5573C159.048 83.3557 159.317 83.0533 159.518 82.6501C159.72 82.2469 159.821 81.7485 159.821 81.1549C159.821 80.5613 159.72 80.0685 159.518 79.6765C159.328 79.2733 159.065 78.9709 158.729 78.7693C158.404 78.5677 158.04 78.4669 157.637 78.4669C157.245 78.4669 156.881 78.5677 156.545 78.7693C156.209 78.9709 155.94 79.2733 155.738 79.6765C155.537 80.0685 155.436 80.5613 155.436 81.1549C155.436 81.7485 155.537 82.2469 155.738 82.6501C155.94 83.0533 156.203 83.3557 156.528 83.5573C156.864 83.7589 157.228 83.8597 157.62 83.8597Z" fill="#424242"/>
<path d="M163.844 85.3885V76.9213H165.641L165.826 78.5005C166.028 78.1309 166.28 77.8173 166.582 77.5597C166.885 77.2909 167.237 77.0837 167.641 76.9381C168.055 76.7925 168.509 76.7197 169.001 76.7197V78.8533H168.296C167.96 78.8533 167.641 78.8981 167.338 78.9877C167.036 79.0661 166.773 79.2005 166.549 79.3909C166.336 79.5701 166.168 79.8221 166.045 80.1469C165.921 80.4605 165.86 80.8581 165.86 81.3397V85.3885H163.844Z" fill="#424242"/>
<path d="M174.2 85.3885C173.629 85.3885 173.131 85.2989 172.705 85.1197C172.291 84.9405 171.966 84.6437 171.731 84.2293C171.496 83.8149 171.378 83.2549 171.378 82.5493V78.6181H169.933V76.9213H171.378L171.613 74.6869H173.394V76.9213H175.696V78.6181H173.394V82.5493C173.394 82.9749 173.484 83.2717 173.663 83.4397C173.853 83.5965 174.167 83.6749 174.604 83.6749H175.645V85.3885H174.2Z" fill="#424242"/>
<path fill-rule="evenodd" clip-rule="evenodd" d="M141.146 44.4943C141.146 33.3532 129.085 26.39 119.437 31.9606C114.959 34.5459 112.2 39.3236 112.2 44.4943C112.2 55.6354 124.261 62.5986 133.909 57.028C138.387 54.4428 141.146 49.665 141.146 44.4943ZM136.025 36.8397C137.705 38.876 138.746 41.5048 138.746 44.4943C138.746 47.3257 137.754 50.0158 136.016 52.1401L131.938 48.0616C133.373 45.9255 133.373 43.0634 131.938 40.9267L136.025 36.8397ZM134.321 35.1491C130.655 32.1666 125.307 31.3427 120.637 34.0391C120.065 34.3688 119.528 34.7412 119.027 35.151L123.106 39.2297C125.242 37.7945 128.105 37.7942 130.241 39.2295L134.321 35.1491ZM117.33 36.8481L121.409 40.9267C119.974 43.0634 119.973 45.9255 121.409 48.0616L117.321 52.1488C115.641 50.1126 114.6 47.4837 114.6 44.4943C114.6 41.6627 115.592 38.9724 117.33 36.8481ZM119.025 53.8394C122.691 56.822 128.039 57.6459 132.709 54.9495C133.28 54.6198 133.818 54.2472 134.319 53.8372L130.241 49.7586C128.104 51.1936 125.242 51.194 123.106 49.7588L119.025 53.8394ZM123.872 47.2956C122.353 45.7765 122.352 43.2138 123.872 41.6927C125.393 40.1732 127.955 40.1736 129.474 41.6924C130.994 43.2133 130.994 45.776 129.475 47.2952C127.954 48.8151 125.391 48.8146 123.872 47.2956Z" fill="#424242"/>
</svg>
